<svg width="96" height="77" viewBox="0 0 96 77" fill="none" xmlns="http://www.w3.org/2000/svg">
<path opacity="0.3" d="M47.6636 0C21.389 0 0 21.4436 0 47.7852C0 58.6563 3.69392 68.6315 9.77103 76.6355C18.2909 66.2422 38.965 62.7181 47.6636 62.7181C56.3621 62.7181 77.0362 66.2422 85.5561 76.6355C91.8855 68.3558 95.3193 58.2169 95.3271 47.7852C95.3271 21.4436 73.9381 0 47.6636 0ZM47.6636 53.7583C36.1051 53.7583 26.8107 44.4402 26.8107 32.8523C26.8107 21.2644 36.1051 11.9463 47.6636 11.9463C59.222 11.9463 68.5164 21.2644 68.5164 32.8523C68.5164 44.4402 59.222 53.7583 47.6636 53.7583Z" fill="#666666" fill-opacity="0.6"/>
</svg>
