<svg width="184" height="12" viewBox="0 0 184 12" fill="none" xmlns="http://www.w3.org/2000/svg">
<path d="M2.83594 4.75781C2.8418 6.11719 3.9375 7.21289 5.29688 7.20703C6.41602 7.21289 7.2832 6.45703 7.48828 5.4375H6.66797C6.50977 6.0293 5.98242 6.43945 5.29688 6.44531C4.36523 6.43945 3.61523 5.68945 3.60938 4.75781C3.61523 3.82617 4.36523 3.07031 5.29688 3.07031C5.98242 3.07031 6.56836 3.48633 6.72656 4.07812H7.54688C7.3418 3.05859 6.41602 2.30273 5.29688 2.29688C3.9375 2.30273 2.8418 3.39844 2.83594 4.75781ZM0.855469 4.75781C0.849609 7.17188 2.83008 9.13477 5.23828 9.12891C7.66406 9.13477 9.61523 7.17188 9.60938 4.75781C9.60352 2.33789 7.66406 0.380859 5.23828 0.386719C2.83008 0.380859 0.867188 2.33789 0.855469 4.75781ZM1.64062 4.75781C1.64648 2.77148 3.25781 1.16016 5.23828 1.16016C7.21875 1.16016 8.82422 2.76562 8.83594 4.75781C8.8418 6.74414 7.22461 8.35547 5.23828 8.35547C3.25195 8.35547 1.62891 6.73242 1.64062 4.75781ZM16.6758 11.5195C18.2109 11.5195 19.3301 10.7812 19.3359 9.16406V2.63672H18.5508V3.82031H18.4805C18.2227 3.27539 17.7129 2.54883 16.5352 2.54297C14.9648 2.54883 13.8926 3.82031 13.8984 5.76562C13.8926 7.72266 15 8.92969 16.5234 8.92969C17.6777 8.92969 18.2168 8.26172 18.4688 7.71094H18.5391V9.11719C18.5332 10.2773 17.8359 10.8164 16.6758 10.8164C15.7617 10.8164 15.0879 10.4824 14.9414 9.79688H14.0977C14.2441 10.916 15.2754 11.5195 16.6758 11.5195ZM14.707 5.78906C14.7012 4.37695 15.375 3.26953 16.6289 3.26953C17.8594 3.26953 18.5508 4.31836 18.5508 5.78906C18.5508 7.29492 17.8418 8.20898 16.6289 8.21484C15.3867 8.20898 14.7012 7.21875 14.707 5.78906ZM21.0586 9H21.8672V4.91016C21.8613 3.99023 22.5762 3.31055 23.5547 3.31641C23.7598 3.31055 23.959 3.3457 24.0234 3.36328V2.55469C23.9238 2.54883 23.7422 2.54297 23.6133 2.54297C22.8281 2.54297 22.1426 2.9707 21.8906 3.62109H21.832V2.63672H21.0586V9ZM27.457 9.12891C28.7402 9.13477 29.6426 8.4375 29.9297 7.55859H29.0742C28.8457 7.96289 28.3301 8.41406 27.457 8.41406C26.1914 8.41406 25.3711 7.5 25.3359 6.05859H30.0586V5.68359C30.0527 3.52148 28.7227 2.54883 27.3398 2.54297C25.6816 2.54883 24.5332 3.92578 24.5391 5.85938C24.5332 7.79297 25.6582 9.13477 27.457 9.12891ZM25.3418 5.36719C25.4121 4.22461 26.2031 3.26367 27.3516 3.26953C28.4648 3.26367 29.2383 4.17773 29.2383 5.36719H25.3418ZM34.043 9.12891C35.3262 9.13477 36.2285 8.4375 36.5156 7.55859H35.6602C35.4316 7.96289 34.916 8.41406 34.043 8.41406C32.7773 8.41406 31.957 7.5 31.9219 6.05859H36.6445V5.68359C36.6387 3.52148 35.3086 2.54883 33.9258 2.54297C32.2676 2.54883 31.1191 3.92578 31.125 5.85938C31.1191 7.79297 32.2441 9.13477 34.043 9.12891ZM31.9277 5.36719C31.998 4.22461 32.7891 3.26367 33.9375 3.26953C35.0508 3.26367 35.8242 4.17773 35.8242 5.36719H31.9277ZM38.8359 5.05078C38.8301 3.94922 39.5449 3.27539 40.5352 3.28125C41.4961 3.27539 42.1055 3.91992 42.1055 4.94531V9H42.9023V4.88672C42.9023 3.36914 42.0352 2.55469 40.7461 2.55469C39.8086 2.55469 39.1758 2.98242 38.8711 3.64453H38.8008V2.63672H38.0273V9H38.8359V5.05078ZM45.4219 0.515625H44.6133V9H45.4219V0.515625ZM46.9688 7.21875C46.9629 8.44336 47.9062 9.14648 49.0664 9.14062C50.1328 9.14648 50.7656 8.56055 51.0234 8.01562H51.0703V9H51.8672V4.69922C51.8672 2.95312 50.5195 2.54883 49.5703 2.54297C48.2461 2.54883 47.2793 3.21094 47.1445 4.21875H47.9766C48.1289 3.63867 48.6914 3.25195 49.5234 3.25781C50.5254 3.25195 51.0762 3.77344 51.0703 4.62891V5.22656C50.7656 5.23828 49.7402 5.30859 49.3125 5.33203C48.0117 5.4375 46.9629 5.92383 46.9688 7.21875ZM47.7656 7.25391C47.7656 6.52148 48.3047 6.08789 49.4297 6.01172C49.7461 5.99414 50.7539 5.91797 51.0703 5.88867V6.57422C51.0762 7.58789 50.3496 8.42578 49.1836 8.42578C48.3691 8.42578 47.7656 8.00391 47.7656 7.25391ZM54.3984 5.05078C54.3926 3.94922 55.1074 3.27539 56.0977 3.28125C57.0586 3.27539 57.668 3.91992 57.668 4.94531V9H58.4648V4.88672C58.4648 3.36914 57.5977 2.55469 56.3086 2.55469C55.3711 2.55469 54.7383 2.98242 54.4336 3.64453H54.3633V2.63672H53.5898V9H54.3984V5.05078ZM62.7422 2.63672H61.4062V1.11328H60.5977V2.63672H59.6484V3.31641H60.5977V7.5C60.5977 8.55469 61.4355 9.09375 62.2617 9.09375C62.5312 9.09375 62.7305 9.07031 62.8594 9.05859V8.30859L62.332 8.33203C61.8516 8.32617 61.4004 8.10352 61.4062 7.30078V3.31641H62.7422V2.63672ZM66.7031 9.12891C67.9863 9.13477 68.8887 8.4375 69.1758 7.55859H68.3203C68.0918 7.96289 67.5762 8.41406 66.7031 8.41406C65.4375 8.41406 64.6172 7.5 64.582 6.05859H69.3047V5.68359C69.2988 3.52148 67.9688 2.54883 66.5859 2.54297C64.9277 2.54883 63.7793 3.92578 63.7852 5.85938C63.7793 7.79297 64.9043 9.13477 66.7031 9.12891ZM64.5879 5.36719C64.6582 4.22461 65.4492 3.26367 66.5977 3.26953C67.7109 3.26367 68.4844 4.17773 68.4844 5.36719H64.5879ZM70.6875 9H71.4961V4.91016C71.4902 3.99023 72.2051 3.31055 73.1836 3.31641C73.3887 3.31055 73.5879 3.3457 73.6523 3.36328V2.55469C73.5527 2.54883 73.3711 2.54297 73.2422 2.54297C72.457 2.54297 71.7715 2.9707 71.5195 3.62109H71.4609V2.63672H70.6875V9ZM75.5039 5.05078C75.498 3.94922 76.2129 3.27539 77.2031 3.28125C78.1641 3.27539 78.7734 3.91992 78.7734 4.94531V9H79.5703V4.88672C79.5703 3.36914 78.7031 2.55469 77.4141 2.55469C76.4766 2.55469 75.8438 2.98242 75.5391 3.64453H75.4688V2.63672H74.6953V9H75.5039V5.05078ZM84.4219 9L85.3125 6.48047H88.8398L89.7305 9H90.6094L87.5273 0.515625H86.625L83.543 9H84.4219ZM85.5762 5.74219L87.0469 1.59375H87.1055L88.5762 5.74219H85.5762ZM92.4961 0.515625H91.6875V9H92.4961V0.515625ZM95.0156 0.515625H94.207V9H95.0156V0.515625ZM99.7734 9H100.605V5.60156H102.562C102.662 5.60156 102.762 5.5957 102.855 5.58984L104.695 9H105.656L103.711 5.43164C104.771 5.08008 105.311 4.20703 105.305 3.07031C105.311 1.57617 104.379 0.515625 102.551 0.515625H99.7734V9ZM100.605 4.83984V1.26562H102.516C103.852 1.25977 104.484 1.98047 104.484 3.07031C104.484 4.16016 103.852 4.83984 102.527 4.83984H100.605ZM106.828 9H107.625V2.63672H106.828V9ZM106.652 0.996094C106.652 1.30664 106.916 1.55273 107.238 1.54688C107.555 1.55273 107.818 1.30664 107.824 0.996094C107.818 0.685547 107.555 0.439453 107.238 0.433594C106.916 0.439453 106.652 0.685547 106.652 0.996094ZM111.809 11.5195C113.344 11.5195 114.463 10.7812 114.469 9.16406V2.63672H113.684V3.82031H113.613C113.355 3.27539 112.846 2.54883 111.668 2.54297C110.098 2.54883 109.025 3.82031 109.031 5.76562C109.025 7.72266 110.133 8.92969 111.656 8.92969C112.811 8.92969 113.35 8.26172 113.602 7.71094H113.672V9.11719C113.666 10.2773 112.969 10.8164 111.809 10.8164C110.895 10.8164 110.221 10.4824 110.074 9.79688H109.23C109.377 10.916 110.408 11.5195 111.809 11.5195ZM109.84 5.78906C109.834 4.37695 110.508 3.26953 111.762 3.26953C112.992 3.26953 113.684 4.31836 113.684 5.78906C113.684 7.29492 112.975 8.20898 111.762 8.21484C110.52 8.20898 109.834 7.21875 109.84 5.78906ZM117 5.05078C116.994 3.94922 117.727 3.27539 118.734 3.28125C119.701 3.27539 120.316 3.9082 120.316 4.94531V9H121.113V4.88672C121.119 3.35742 120.24 2.55469 118.945 2.55469C117.979 2.55469 117.363 2.97656 117.059 3.64453H117V0.515625H116.191V9H117V5.05078ZM125.391 2.63672H124.055V1.11328H123.246V2.63672H122.297V3.31641H123.246V7.5C123.246 8.55469 124.084 9.09375 124.91 9.09375C125.18 9.09375 125.379 9.07031 125.508 9.05859V8.30859L124.98 8.33203C124.5 8.32617 124.049 8.10352 124.055 7.30078V3.31641H125.391V2.63672ZM130.242 4.21875H131.039C130.893 3.22852 130.096 2.54883 128.848 2.54297C127.512 2.54297 126.604 3.30469 126.598 4.35938C126.604 5.20312 127.166 5.79492 128.238 6.04688L129.211 6.28125C129.961 6.45703 130.307 6.80859 130.312 7.3125C130.307 7.99219 129.686 8.42578 128.73 8.42578C127.863 8.42578 127.348 8.07422 127.219 7.38281H126.387C126.551 8.50781 127.383 9.13477 128.742 9.12891C130.242 9.13477 131.127 8.34961 131.121 7.26562C131.127 6.41016 130.588 5.8418 129.516 5.57812L128.543 5.34375C127.77 5.15039 127.4 4.81055 127.406 4.32422C127.4 3.70898 127.998 3.24023 128.848 3.24609C129.633 3.24609 130.102 3.62109 130.242 4.21875ZM135.574 9H136.406V5.60156H138.363C138.463 5.60156 138.562 5.5957 138.656 5.58984L140.496 9H141.457L139.512 5.43164C140.572 5.08008 141.111 4.20703 141.105 3.07031C141.111 1.57617 140.18 0.515625 138.352 0.515625H135.574V9ZM136.406 4.83984V1.26562H138.316C139.652 1.25977 140.285 1.98047 140.285 3.07031C140.285 4.16016 139.652 4.83984 138.328 4.83984H136.406ZM145.148 9.12891C146.432 9.13477 147.334 8.4375 147.621 7.55859H146.766C146.537 7.96289 146.021 8.41406 145.148 8.41406C143.883 8.41406 143.062 7.5 143.027 6.05859H147.75V5.68359C147.744 3.52148 146.414 2.54883 145.031 2.54297C143.373 2.54883 142.225 3.92578 142.23 5.85938C142.225 7.79297 143.35 9.13477 145.148 9.12891ZM143.033 5.36719C143.104 4.22461 143.895 3.26367 145.043 3.26953C146.156 3.26367 146.93 4.17773 146.93 5.36719H143.033ZM152.672 4.21875H153.469C153.322 3.22852 152.525 2.54883 151.277 2.54297C149.941 2.54297 149.033 3.30469 149.027 4.35938C149.033 5.20312 149.596 5.79492 150.668 6.04688L151.641 6.28125C152.391 6.45703 152.736 6.80859 152.742 7.3125C152.736 7.99219 152.115 8.42578 151.16 8.42578C150.293 8.42578 149.777 8.07422 149.648 7.38281H148.816C148.98 8.50781 149.812 9.13477 151.172 9.12891C152.672 9.13477 153.557 8.34961 153.551 7.26562C153.557 6.41016 153.018 5.8418 151.945 5.57812L150.973 5.34375C150.199 5.15039 149.83 4.81055 149.836 4.32422C149.83 3.70898 150.428 3.24023 151.277 3.24609C152.062 3.24609 152.531 3.62109 152.672 4.21875ZM157.559 9.12891C158.842 9.13477 159.744 8.4375 160.031 7.55859H159.176C158.947 7.96289 158.432 8.41406 157.559 8.41406C156.293 8.41406 155.473 7.5 155.438 6.05859H160.16V5.68359C160.154 3.52148 158.824 2.54883 157.441 2.54297C155.783 2.54883 154.635 3.92578 154.641 5.85938C154.635 7.79297 155.76 9.13477 157.559 9.12891ZM155.443 5.36719C155.514 4.22461 156.305 3.26367 157.453 3.26953C158.566 3.26367 159.34 4.17773 159.34 5.36719H155.443ZM161.543 9H162.352V4.91016C162.346 3.99023 163.061 3.31055 164.039 3.31641C164.244 3.31055 164.443 3.3457 164.508 3.36328V2.55469C164.408 2.54883 164.227 2.54297 164.098 2.54297C163.312 2.54297 162.627 2.9707 162.375 3.62109H162.316V2.63672H161.543V9ZM170.742 2.63672H169.887L168.023 7.95703H167.965L166.113 2.63672H165.246L167.566 9H168.422L170.742 2.63672ZM174.316 9.12891C175.6 9.13477 176.502 8.4375 176.789 7.55859H175.934C175.705 7.96289 175.189 8.41406 174.316 8.41406C173.051 8.41406 172.23 7.5 172.195 6.05859H176.918V5.68359C176.912 3.52148 175.582 2.54883 174.199 2.54297C172.541 2.54883 171.393 3.92578 171.398 5.85938C171.393 7.79297 172.518 9.13477 174.316 9.12891ZM172.201 5.36719C172.271 4.22461 173.062 3.26367 174.211 3.26953C175.324 3.26367 176.098 4.17773 176.098 5.36719H172.201ZM180.609 9.12891C181.775 9.13477 182.297 8.40234 182.555 7.85156H182.637V9H183.422V0.515625H182.613V3.82031H182.555C182.303 3.27539 181.799 2.54883 180.621 2.54297C179.057 2.54883 177.979 3.86133 177.984 5.83594C177.979 7.81641 179.051 9.13477 180.609 9.12891ZM178.793 5.82422C178.787 4.37695 179.461 3.26953 180.715 3.26953C181.945 3.26953 182.637 4.31836 182.637 5.82422C182.637 7.33008 181.934 8.4082 180.715 8.41406C179.473 8.4082 178.787 7.27734 178.793 5.82422Z" fill="#666666"/>
</svg>
