<svg width="19" height="21" viewBox="0 0 19 21" fill="none" xmlns="http://www.w3.org/2000/svg">
<path fill-rule="evenodd" clip-rule="evenodd" d="M2.53183 14H2.52814C2.77461 12.3653 3.35926 9.28474 4.52613 6.62341C5.74658 3.83987 7.3778 2 9.50003 2C11.6175 2 13.2149 3.83508 14.3904 6.62328C15.5142 9.28863 16.048 12.3722 16.2667 14H16.2326H16.1983H16.1641H16.1299H16.0957H16.0615H16.0273H15.9931H15.9589H15.9247H15.8905H15.8564H15.8222H15.7881H15.7539H15.7198H15.6856H15.6515H15.6174H15.5832H15.5491H15.515H15.4809H15.4468H15.4128H15.3787H15.3446H15.3106H15.2765H15.2425H15.2085H15.1744H15.1404H15.1064H15.0724H15.0385H15.0045H14.9705H14.9366H14.9026H14.8687H14.8348H14.8009H14.767H14.7331H14.6992H14.6653H14.6315H14.5976H14.5638H14.53H14.4962H14.4624H14.4286H14.3948H14.361H14.3273H14.2935H14.2598H14.2261H14.1924H14.1587H14.125H14.0914H14.0577H14.0241H13.9905H13.9569H13.9233H13.8897H13.8562H13.8226H13.7891H13.7556H13.7221H13.6886H13.6551H13.6216H13.5882H13.5548H13.5214H13.488H13.4546H13.4212H13.3879H13.3546H13.3212H13.2879H13.2547H13.2214H13.1882H13.1549H13.1217H13.0885H13.0554H13.0222H12.9891H12.956H12.9228H12.8898H12.8567H12.8237H12.7906H12.7576H12.7246H12.6917H12.6587H12.6258H12.5929H12.56H12.5271H12.4943H12.4614H12.4286H12.3958H12.3631H12.3303H12.2976H12.2649H12.2322H12.1995H12.1669H12.1343H12.1017H12.0691H12.0366H12.004H11.9715H11.939H11.9066H11.8741H11.8417H11.8093H11.7769H11.7446H11.7123H11.68H11.6477H11.6154H11.5832H11.551H11.5188H11.4867H11.4545H11.4224H11.3903H11.3583H11.3263H11.2942H11.2623H11.2303H11.1984H11.1665H11.1346H11.1027H11.0709H11.0391H11.0074H10.9756H10.9439H10.9122H10.8805H10.8489H10.8173H10.7857H10.7542H10.7226H10.6911H10.6597H10.6282H10.5968H10.5654H10.5341H10.5027H10.4714H10.4402H10.4089H10.3777H10.3465H10.3154H10.2843H10.2532H10.2221H10.1911H10.1601H10.1291H10.0982H10.0673H10.0364H10.0055H9.97473H9.94394H9.91319H9.88247H9.85178H9.82112H9.7905H9.75991H9.72935H9.69882H9.66832H9.63786H9.60743H9.57703H9.54667H9.51634H9.48604H9.45578H9.42555H9.39536H9.3652H9.33507H9.30498H9.27492H9.24489H9.2149H9.18495H9.15503H9.12515H9.0953H9.06548H9.03571H9.00597H8.97626H8.94659H8.91696H8.88736H8.8578H8.82827H8.79878H8.76933H8.73992H8.71054H8.6812H8.6519H8.62263H8.59341H8.56422H8.53507H8.50595H8.47688H8.44784H8.41884H8.38988H8.36096H8.33208H8.30324H8.27444H8.24567H8.21695H8.18826H8.15962H8.13101H8.10245H8.07392H8.04544H8.01699H7.98859H7.96023H7.9319H7.90362H7.87538H7.84719H7.81903H7.79091H7.76284H7.73481H7.70682H7.67887H7.65097H7.6231H7.59528H7.56751H7.53977H7.51208H7.48443H7.45683H7.42927H7.40175H7.37427H7.34684H7.31946H7.29211H7.26482H7.23756H7.21035H7.18319H7.15607H7.12899H7.10196H7.07498H7.04804H7.02115H6.9943H6.9675H6.94074H6.91403H6.88737H6.86075H6.83418H6.80766H6.78118H6.75475H6.72837H6.70203H6.67574H6.6495H6.62331H6.59716H6.57106H6.54501H6.51901H6.49306H6.46715H6.4413H6.41549H6.38973H6.36402H6.33836H6.31275H6.28719H6.26168H6.23622H6.2108H6.18544H6.16013H6.13487H6.10966H6.08449H6.05938H6.03433H6.00932H5.98436H5.95945H5.9346H5.9098H5.88505H5.86035H5.8357H5.8111H5.78656H5.76207H5.73763H5.71325H5.68891H5.66464H5.64041H5.61624H5.59212H5.56805H5.54404H5.52008H5.49617H5.47232H5.44853H5.42478H5.4011H5.37746H5.35388H5.33036H5.30689H5.28348H5.26012H5.23682H5.21357H5.19038H5.16725H5.14417H5.12115H5.09818H5.07527H5.05242H5.02962H5.00688H4.9842H4.96157H4.939H4.91649H4.89404H4.87165H4.84931H4.82703H4.80481H4.78264H4.76054H4.73849H4.71651H4.69458H4.67271H4.6509H4.62915H4.60746H4.58582H4.56425H4.54274H4.52129H4.49989H4.47856H4.45729H4.43608H4.41493H4.39384H4.37281H4.35184H4.33093H4.31009H4.28931H4.26858H4.24792H4.22732H4.20679H4.18632H4.1659H4.14555H4.12527H4.10504H4.08488H4.06479H4.04475H4.02478H4.00487H3.98503H3.96525H3.94553H3.92588H3.90629H3.88677H3.86731H3.84791H3.82858H3.80932H3.79012H3.77098H3.75191H3.73291H3.71397H3.6951H3.67629H3.65755H3.63887H3.62027H3.60172H3.58325H3.56484H3.5465H3.52822H3.51001H3.49187H3.4738H3.45579H3.43786H3.41999H3.40218H3.38445H3.36678H3.34919H3.33166H3.3142H3.29681H3.27948H3.26223H3.24505H3.22793H3.21088H3.19391H3.177H3.16017H3.1434H3.12671H3.11008H3.09353H3.07704H3.06063H3.04428H3.02801H3.01181H2.99568H2.97963H2.96364H2.94773H2.93188H2.91611H2.90042H2.88479H2.86924H2.85376H2.83835H2.82301H2.80775H2.79256H2.77745H2.7624H2.74744H2.73254H2.71772H2.70297H2.6883H2.6737H2.65918H2.64473H2.63035H2.61605H2.60183H2.58768H2.5736H2.5596H2.54568H2.53183ZM9.50003 0C6.05243 0 3.94389 2.97066 2.69445 5.82031C1.40565 8.75976 0.790242 12.0923 0.541123 13.7644C0.359175 14.9855 1.32108 16 2.49074 16H2.50436H2.51806H2.53183H2.54568H2.5596H2.5736H2.58768H2.60183H2.61605H2.63035H2.64473H2.65918H2.6737H2.6883H2.70297H2.71772H2.73254H2.74744H2.7624H2.77745H2.79256H2.80775H2.82301H2.83835H2.85376H2.86924H2.88479H2.90042H2.91611H2.93188H2.94773H2.96364H2.97963H2.99568H3.01181H3.02801H3.04428H3.06063H3.07704H3.09353H3.11008H3.12671H3.1434H3.16017H3.177H3.19391H3.21088H3.22793H3.24505H3.26223H3.27948H3.29681H3.3142H3.33166H3.34919H3.36678H3.38445H3.40218H3.41999H3.43786H3.45579H3.4738H3.49187H3.51001H3.52822H3.5465H3.56484H3.58325H3.60172H3.62027H3.63887H3.65755H3.67629H3.6951H3.71397H3.73291H3.75191H3.77098H3.79012H3.80932H3.82858H3.84791H3.86731H3.88677H3.90629H3.92588H3.94553H3.96525H3.98503H4.00487H4.02478H4.04475H4.06479H4.08488H4.10504H4.12527H4.14555H4.1659H4.18632H4.20679H4.22732H4.24792H4.26858H4.28931H4.31009H4.33093H4.35184H4.37281H4.39384H4.41493H4.43608H4.45729H4.47856H4.49989H4.52129H4.54274H4.56425H4.58582H4.60746H4.62915H4.6509H4.67271H4.69458H4.71651H4.73849H4.76054H4.78264H4.80481H4.82703H4.84931H4.87165H4.89404H4.91649H4.939H4.96157H4.9842H5.00688H5.02962H5.05242H5.07527H5.09818H5.12115H5.14417H5.16725H5.19038H5.21357H5.23682H5.26012H5.28348H5.30689H5.33036H5.35388H5.37746H5.4011H5.42478H5.44853H5.47232H5.49617H5.52008H5.54404H5.56805H5.59212H5.61624H5.64041H5.66464H5.68891H5.71325H5.73763H5.76207H5.78656H5.8111H5.8357H5.86035H5.88505H5.9098H5.9346H5.95945H5.98436H6.00932H6.03433H6.05938H6.08449H6.10966H6.13487H6.16013H6.18544H6.2108H6.23622H6.26168H6.28719H6.31275H6.33836H6.36402H6.38973H6.41549H6.4413H6.46715H6.49306H6.51901H6.54501H6.57106H6.59716H6.62331H6.6495H6.67574H6.70203H6.72837H6.75475H6.78118H6.80766H6.83418H6.86075H6.88737H6.91403H6.94074H6.9675H6.9943H7.02115H7.04804H7.07498H7.10196H7.12899H7.15607H7.18319H7.21035H7.23756H7.26482H7.29211H7.31946H7.34684H7.37427H7.40175H7.42927H7.45683H7.48443H7.51208H7.53977H7.56751H7.59528H7.6231H7.65097H7.67887H7.70682H7.73481H7.76284H7.79091H7.81903H7.84719H7.87538H7.90362H7.9319H7.96023H7.98859H8.01699H8.04544H8.07392H8.10245H8.13101H8.15962H8.18826H8.21695H8.24567H8.27444H8.30324H8.33208H8.36096H8.38988H8.41884H8.44784H8.47688H8.50595H8.53507H8.56422H8.59341H8.62263H8.6519H8.6812H8.71054H8.73992H8.76933H8.79878H8.82827H8.8578H8.88736H8.91696H8.94659H8.97626H9.00597H9.03571H9.06548H9.0953H9.12515H9.15503H9.18495H9.2149H9.24489H9.27492H9.30498H9.33507H9.3652H9.39536H9.42555H9.45578H9.48604H9.51634H9.54667H9.57703H9.60743H9.63786H9.66832H9.69882H9.72935H9.75991H9.7905H9.82112H9.85178H9.88247H9.91319H9.94394H9.97473H10.0055H10.0364H10.0673H10.0982H10.1291H10.1601H10.1911H10.2221H10.2532H10.2843H10.3154H10.3465H10.3777H10.4089H10.4402H10.4714H10.5027H10.5341H10.5654H10.5968H10.6282H10.6597H10.6911H10.7226H10.7542H10.7857H10.8173H10.8489H10.8805H10.9122H10.9439H10.9756H11.0074H11.0391H11.0709H11.1027H11.1346H11.1665H11.1984H11.2303H11.2623H11.2942H11.3263H11.3583H11.3903H11.4224H11.4545H11.4867H11.5188H11.551H11.5832H11.6154H11.6477H11.68H11.7123H11.7446H11.7769H11.8093H11.8417H11.8741H11.9066H11.939H11.9715H12.004H12.0366H12.0691H12.1017H12.1343H12.1669H12.1995H12.2322H12.2649H12.2976H12.3303H12.3631H12.3958H12.4286H12.4614H12.4943H12.5271H12.56H12.5929H12.6258H12.6587H12.6917H12.7246H12.7576H12.7906H12.8237H12.8567H12.8898H12.9228H12.956H12.9891H13.0222H13.0554H13.0885H13.1217H13.1549H13.1882H13.2214H13.2547H13.2879H13.3212H13.3546H13.3879H13.4212H13.4546H13.488H13.5214H13.5548H13.5882H13.6216H13.6551H13.6886H13.7221H13.7556H13.7891H13.8226H13.8562H13.8897H13.9233H13.9569H13.9905H14.0241H14.0577H14.0914H14.125H14.1587H14.1924H14.2261H14.2598H14.2935H14.3273H14.361H14.3948H14.4286H14.4624H14.4962H14.53H14.5638H14.5976H14.6315H14.6653H14.6992H14.7331H14.767H14.8009H14.8348H14.8687H14.9026H14.9366H14.9705H15.0045H15.0385H15.0724H15.1064H15.1404H15.1744H15.2085H15.2425H15.2765H15.3106H15.3446H15.3787H15.4128H15.4468H15.4809H15.515H15.5491H15.5832H15.6174H15.6515H15.6856H15.7198H15.7539H15.7881H15.8222H15.8564H15.8905H15.9247H15.9589H15.9931H16.0273H16.0615H16.0957H16.1299H16.1641H16.1983H16.2326H16.2668H16.301C17.4552 16 18.4181 15.0092 18.2571 13.7953C18.0364 12.1307 17.4758 8.79313 16.2333 5.84629C15.0292 2.99017 12.9609 0 9.50003 0ZM5.89096 18.0796L5.89108 18.0796L5.89417 18.0809L5.91032 18.0877C5.92531 18.0939 5.94861 18.1035 5.97948 18.116C6.04124 18.141 6.13309 18.1775 6.24911 18.2216C6.48175 18.3102 6.80848 18.4283 7.18279 18.5461C7.95792 18.7901 8.83676 19 9.5 19C10.1632 19 11.0421 18.7901 11.8172 18.5461C12.1915 18.4283 12.5183 18.3102 12.7509 18.2216C12.8669 18.1775 12.9588 18.141 13.0205 18.116C13.0514 18.1035 13.0747 18.0939 13.0897 18.0877L13.1058 18.0809L13.1089 18.0796L13.109 18.0796L13.1091 18.0796C13.6174 17.8637 14.2044 18.1007 14.4204 18.6089C14.6363 19.1172 14.3994 19.7044 13.8911 19.9204L13.5 19C13.8911 19.9204 13.891 19.9204 13.8908 19.9205L13.8905 19.9206L13.8897 19.9209L13.8875 19.9219L13.8806 19.9248L13.8567 19.9348C13.8364 19.9432 13.8075 19.9551 13.7708 19.9699C13.6974 19.9996 13.5926 20.0413 13.4622 20.0909C13.2021 20.1898 12.8376 20.3217 12.4177 20.4539C11.6045 20.7099 10.4834 21 9.5 21C8.51665 21 7.39549 20.7099 6.58226 20.4539C6.1624 20.3217 5.79787 20.1898 5.53779 20.0909C5.40745 20.0413 5.30257 19.9996 5.2292 19.9699C5.1925 19.9551 5.16363 19.9432 5.14335 19.9348L5.11943 19.9248L5.11247 19.9219L5.11026 19.9209L5.10949 19.9206L5.10918 19.9205C5.10905 19.9204 5.10892 19.9204 5.5 19L5.10892 19.9204C4.60062 19.7044 4.36366 19.1172 4.57964 18.6089C4.79556 18.1008 5.38241 17.8638 5.89061 18.0794L5.89083 18.0795L5.89088 18.0796L5.89096 18.0796Z" fill="black" fill-opacity="0.8"/>
</svg>
