<svg width="24" height="24" viewBox="0 0 24 24" fill="none" xmlns="http://www.w3.org/2000/svg">
<path d="M2.99902 3L20.999 21" stroke="#7C7B7B" stroke-width="2" stroke-linecap="round" stroke-linejoin="round"/>
<path fill-rule="evenodd" clip-rule="evenodd" d="M12 16C13.4574 16 14.7068 15.1092 15.2333 13.8424L13.4277 12.0385C13.4746 12.1839 13.5 12.339 13.5 12.5C13.5 13.3284 12.8284 14 12 14C11.1716 14 10.5 13.3284 10.5 12.5C10.5 11.6716 11.1716 11 12 11C12.1667 11 12.327 11.0272 12.4768 11.0774L10.6567 9.26705C9.39036 9.79382 8.5 11.0429 8.5 12.5C8.5 14.433 10.067 16 12 16Z" fill="#7C7B7B"/>
<path fill-rule="evenodd" clip-rule="evenodd" d="M3.1326 12.5068C3.01754 12.7594 3 12.8964 3 12.933C3 13.0367 3.11086 13.4168 3.62552 14.035C4.10037 14.6054 4.80624 15.2421 5.6823 15.8393C7.44504 17.0409 9.75451 17.9881 12.0099 17.9999C14.0005 18.0104 16.0313 17.2852 17.6894 16.2898L19.1269 17.7507C17.1775 19.0063 14.6224 20.0137 11.9994 19.9999C9.23263 19.9854 6.5398 18.8443 4.55575 17.4918C3.55842 16.8119 2.70478 16.055 2.08847 15.3147C1.51196 14.6222 1 13.7746 1 12.933C1 12.497 1.13714 12.0628 1.31252 11.6778C1.49343 11.2806 1.746 10.8688 2.04671 10.4598C2.64842 9.6414 3.48868 8.77218 4.48169 7.97698C5.34808 7.28318 6.36008 6.62289 7.46404 6.10125L8.98154 7.62205C7.80913 8.08457 6.69469 8.76707 5.73184 9.53811C4.85554 10.2399 4.14242 10.9857 3.65807 11.6445C3.41576 11.9741 3.24213 12.2664 3.1326 12.5068ZM11.247 7.04221C11.4999 7.01447 11.7527 7 12.0046 7C14.2236 7 16.5076 8.10525 18.2745 9.51378C19.1487 10.2107 19.8593 10.9533 20.3417 11.6133C20.8602 12.3227 21 12.7794 21 12.933C21 13.0618 20.8808 13.4571 20.3719 14.0762C20.1006 14.4063 19.7536 14.7569 19.3422 15.1082L20.7604 16.5258C21.2026 16.1384 21.5926 15.7407 21.917 15.3462C22.4975 14.6399 23 13.7838 23 12.933C23 12.1071 22.5223 11.2074 21.9564 10.4332C21.3544 9.60955 20.514 8.74133 19.5212 7.94991C17.5541 6.38171 14.8404 5 12.0046 5C11.1722 5 10.3503 5.1205 9.55478 5.33053L11.247 7.04221Z" fill="#7C7B7B"/>
</svg>
