<svg width="24" height="24" viewBox="0 0 24 24" fill="none" xmlns="http://www.w3.org/2000/svg">
  <path d="M18.755 6.98727C19.637 7.45867 19.6369 7.45873 19.6369 7.4588L19.6368 7.45893L19.6367 7.45922L19.6363 7.45989L19.6354 7.46156L19.6329 7.46616L19.6253 7.48024C19.619 7.49165 19.6105 7.50712 19.6 7.52568C19.5793 7.56236 19.55 7.61325 19.5154 7.6698C19.4635 7.75446 19.3412 7.95097 19.1894 8.10279C18.9795 8.31267 18.7303 8.47909 18.456 8.59251C18.1817 8.70593 17.8877 8.76412 17.5909 8.76374L17.5922 7.76375V8.76375C17.5637 8.76375 17.5354 8.76322 17.5073 8.76218C18.065 9.711 18.3846 10.8174 18.3846 12C18.3846 15.5337 15.5308 18.3875 11.9971 18.3875C8.46346 18.3875 5.60961 15.5337 5.60961 12C5.60961 8.46633 8.46346 5.61248 11.9971 5.61248C13.2212 5.61248 14.3638 5.95496 15.3344 6.54952C15.3341 6.53489 15.3339 6.52022 15.3339 6.50552C15.3339 5.25714 16.3438 4.2473 17.5922 4.2473C18.8401 4.2473 19.8497 5.25646 19.8504 6.50427L18.755 6.98727ZM18.755 6.98727L19.637 7.45867L19.6837 7.37125L19.7123 7.27635L18.755 6.98727ZM22.4307 7.66582C22.5022 8.93651 22.5008 10.1991 22.4994 11.4696C22.4992 11.6462 22.499 11.823 22.499 12C22.499 12.1979 22.4993 12.3956 22.4996 12.593M1.56883 16.3342C1.65026 18.0153 2.03377 19.5073 3.2631 20.7367C4.49506 21.9686 5.98444 22.3495 7.66558 22.4309C8.93862 22.5024 10.2015 22.501 11.4703 22.4996C11.6467 22.4994 11.8231 22.4992 11.9998 22.4992C12.1767 22.4992 12.3535 22.4994 12.5302 22.4996C13.8006 22.501 15.0632 22.5024 16.3339 22.4309M21.4319 7.7142L21.4318 7.7142L21.4323 7.72199C21.502 8.96198 21.5007 10.194 21.4994 11.4673C21.4992 11.644 21.499 11.8215 21.499 12C21.499 12.2005 21.4993 12.3998 21.4995 12.598C21.5013 13.8492 21.5031 15.0585 21.4324 16.2762L21.4323 16.2762L21.4319 16.2858C21.3565 17.8417 21.0146 19.0443 20.0293 20.0295C19.0465 21.0124 17.841 21.3568 16.2856 21.4321L16.2856 21.4321L16.2778 21.4325C15.0378 21.5023 13.8058 21.501 12.5325 21.4996C12.3557 21.4994 12.1782 21.4992 11.9998 21.4992C11.8217 21.4992 11.6444 21.4994 11.468 21.4996C10.1964 21.501 8.96403 21.5023 7.72165 21.4325L7.72165 21.4325L7.71396 21.4321C6.15809 21.3567 4.95546 21.0148 3.97021 20.0295C2.98738 19.0467 2.643 17.8412 2.56766 16.2858L2.56769 16.2858L2.56725 16.278C2.49749 15.038 2.4988 13.8039 2.50016 12.5318C2.50035 12.3553 2.50054 12.1781 2.50054 12C2.50054 11.8219 2.50035 11.6447 2.50016 11.4682C2.4988 10.1967 2.49749 8.96428 2.56726 7.72189L2.56729 7.72189L2.56766 7.7142C2.64302 6.15833 2.98496 4.9557 3.97021 3.97045C4.95304 2.98762 6.15853 2.64325 7.71396 2.56791L7.71396 2.56794L7.72175 2.5675C8.96174 2.49774 10.1938 2.49905 11.467 2.5004C11.6438 2.50059 11.8213 2.50078 11.9998 2.50078C12.1779 2.50078 12.3551 2.50059 12.5315 2.5004C13.8031 2.49905 15.0355 2.49773 16.2779 2.5675L16.2779 2.56753L16.2856 2.56791C17.8414 2.64327 19.0441 2.9852 20.0293 3.97045C21.0121 4.95328 21.3565 6.15877 21.4319 7.7142ZM17.5934 6.76375H17.5922C17.4483 6.76375 17.3339 6.64933 17.3339 6.50552C17.3339 6.36171 17.4483 6.2473 17.5922 6.2473C17.7287 6.2473 17.8388 6.35049 17.8495 6.48405C17.8495 6.48407 17.8495 6.48409 17.8495 6.48411C17.8456 6.50759 17.8389 6.53926 17.8302 6.57575C17.8281 6.58477 17.8259 6.59362 17.8237 6.60219C17.8192 6.60978 17.8145 6.61759 17.8097 6.62549C17.7902 6.65721 17.7727 6.6841 17.759 6.70349C17.7388 6.72042 17.7162 6.73419 17.6918 6.74427C17.6606 6.75717 17.6272 6.76379 17.5934 6.76375ZM17.7481 6.71817C17.7481 6.71815 17.7485 6.71763 17.7493 6.71667C17.7485 6.7177 17.7481 6.71819 17.7481 6.71817ZM23.499 12C23.499 11.8246 23.4992 11.6486 23.4994 11.4721L16.3862 23.4296C18.1917 23.3416 19.9687 22.9185 21.4435 21.4438C22.9209 19.9664 23.3413 18.1921 23.4293 16.3874C23.5034 15.1071 23.5015 13.8339 23.4996 12.588C23.4993 12.3913 23.499 12.1953 23.499 12ZM0.500133 12.527C0.498678 13.7923 0.49719 15.0863 0.570196 16.3865L23.4293 7.61354C23.3414 5.80804 22.9183 4.03101 21.4435 2.55624C19.9659 1.07864 18.1913 0.658348 16.3862 0.570437C15.0837 0.497436 13.7916 0.498922 12.5267 0.500377C12.3505 0.500579 12.1748 0.500781 11.9998 0.500781C11.8243 0.500781 11.6483 0.500579 11.4719 0.500376C10.2053 0.498922 8.91342 0.497438 7.61327 0.570439C5.80778 0.658381 4.03076 1.08148 2.556 2.55624C1.07839 4.03384 0.658105 5.80849 0.570193 7.61355C0.497192 8.916 0.498678 10.2082 0.500133 11.4731C0.500335 11.6493 0.500537 11.8249 0.500537 12C0.500537 12.1751 0.500335 12.3507 0.500133 12.527ZM9.49564 12C9.49564 10.6242 10.6214 9.49851 11.9971 9.49851C13.3729 9.49851 14.4986 10.6242 14.4986 12C14.4986 13.3758 13.3729 14.5015 11.9971 14.5015C10.6214 14.5015 9.49564 13.3758 9.49564 12Z" stroke="black" stroke-opacity="0.8" stroke-width="2" />
</svg>
  