<svg width="30" height="30" viewBox="0 0 30 30" fill="none" xmlns="http://www.w3.org/2000/svg">
  <path d="M14.9999 8.99111C11.6747 8.99111 8.99111 11.6747 8.99111 14.9999C8.99111 18.3251 11.6747 21.0087 14.9999 21.0087C18.3251 21.0087 21.0087 18.3251 21.0087 14.9999C21.0087 11.6747 18.3251 8.99111 14.9999 8.99111ZM14.9999 18.9052C12.8495 18.9052 11.0946 17.1503 11.0946 14.9999C11.0946 12.8495 12.8495 11.0946 14.9999 11.0946C17.1503 11.0946 18.9052 12.8495 18.9052 14.9999C18.9052 17.1503 17.1503 18.9052 14.9999 18.9052ZM21.2548 7.34462C20.4784 7.34462 19.8515 7.97157 19.8515 8.74794C19.8515 9.52431 20.4784 10.1513 21.2548 10.1513C22.0311 10.1513 22.6581 9.52724 22.6581 8.74794C22.6583 8.56359 22.6222 8.381 22.5517 8.21064C22.4813 8.04028 22.3779 7.88549 22.2476 7.75513C22.1172 7.62477 21.9624 7.52141 21.7921 7.45097C21.6217 7.38053 21.4391 7.34439 21.2548 7.34462ZM26.7128 14.9999C26.7128 13.3827 26.7274 11.7802 26.6366 10.1659C26.5458 8.29091 26.1181 6.62685 24.747 5.25575C23.3729 3.88173 21.7118 3.45693 19.8368 3.36611C18.2196 3.27529 16.6171 3.28993 15.0028 3.28993C13.3856 3.28993 11.7831 3.27529 10.1688 3.36611C8.29384 3.45693 6.62978 3.88466 5.25868 5.25575C3.88466 6.62978 3.45986 8.29091 3.36904 10.1659C3.27822 11.7831 3.29286 13.3856 3.29286 14.9999C3.29286 16.6142 3.27822 18.2196 3.36904 19.8339C3.45986 21.7089 3.88759 23.3729 5.25868 24.744C6.63271 26.1181 8.29384 26.5429 10.1688 26.6337C11.786 26.7245 13.3886 26.7099 15.0028 26.7099C16.62 26.7099 18.2226 26.7245 19.8368 26.6337C21.7118 26.5429 23.3759 26.1151 24.747 24.744C26.121 23.37 26.5458 21.7089 26.6366 19.8339C26.7304 18.2196 26.7128 16.6171 26.7128 14.9999ZM24.1347 21.9081C23.9208 22.4413 23.663 22.8397 23.2499 23.2499C22.8368 23.663 22.4413 23.9208 21.9081 24.1347C20.3671 24.747 16.7079 24.6093 14.9999 24.6093C13.2919 24.6093 9.62978 24.747 8.08876 24.1376C7.55556 23.9237 7.15712 23.6659 6.74697 23.2528C6.33388 22.8397 6.07607 22.4442 5.8622 21.911C5.25282 20.3671 5.39052 16.7079 5.39052 14.9999C5.39052 13.2919 5.25282 9.62978 5.8622 8.08876C6.07607 7.55556 6.33388 7.15712 6.74697 6.74697C7.16005 6.33681 7.55556 6.07607 8.08876 5.8622C9.62978 5.25282 13.2919 5.39052 14.9999 5.39052C16.7079 5.39052 20.37 5.25282 21.911 5.8622C22.4442 6.07607 22.8427 6.33388 23.2528 6.74697C23.6659 7.16005 23.9237 7.55556 24.1376 8.08876C24.747 9.62978 24.6093 13.2919 24.6093 14.9999C24.6093 16.7079 24.747 20.3671 24.1347 21.9081Z" fill="black" fill-opacity="0.8" />
</svg>
  