<svg width="30" height="30" viewBox="0 0 30 30" fill="none" xmlns="http://www.w3.org/2000/svg">
  <path d="M23.745 13.75C24.0512 13.7501 24.3467 13.8625 24.5755 14.0659C24.8043 14.2694 24.9504 14.5497 24.9862 14.8538L24.995 15V22.5C24.995 23.7828 24.502 25.0166 23.6178 25.9461C22.7337 26.8755 21.5262 27.4297 20.245 27.4938L19.995 27.5H10C8.7172 27.5 7.48346 27.007 6.55399 26.1229C5.62451 25.2388 5.07039 24.0312 5.00625 22.75L5 22.5V15C5.00035 14.6814 5.12235 14.375 5.34106 14.1433C5.55977 13.9117 5.85869 13.7722 6.17674 13.7536C6.4948 13.7349 6.80797 13.8384 7.05229 14.0429C7.29661 14.2474 7.45362 14.5374 7.49125 14.8538L7.5 15V22.5C7.50012 23.1305 7.73846 23.7377 8.1673 24.1999C8.59613 24.6621 9.18377 24.9453 9.8125 24.9925L10 25H19.995C20.6255 24.9999 21.2327 24.7616 21.6949 24.3327C22.1571 23.9039 22.4402 23.3163 22.4875 22.6875L22.495 22.5V15C22.495 14.6685 22.6267 14.3506 22.8611 14.1162C23.0955 13.8817 23.4135 13.75 23.745 13.75ZM7.86125 9.11254L14.1075 2.86629C14.3226 2.65089 14.6089 2.52137 14.9127 2.50204C15.2164 2.4827 15.5168 2.57489 15.7575 2.76129L15.875 2.86504L22.1287 9.11129C22.3534 9.33603 22.4839 9.63787 22.494 9.95545C22.504 10.273 22.3927 10.5825 22.1828 10.821C21.9728 11.0594 21.6799 11.209 21.3636 11.2392C21.0473 11.2695 20.7314 11.1781 20.48 10.9838L20.3625 10.88L16.245 6.76879V19.0688C16.245 19.375 16.1326 19.6705 15.9291 19.8993C15.7257 20.128 15.4453 20.2742 15.1412 20.31L14.995 20.3188C14.6888 20.3188 14.3933 20.2063 14.1645 20.0029C13.9357 19.7994 13.7896 19.5191 13.7537 19.215L13.745 19.0688V6.76254L9.62875 10.88C9.41351 11.0953 9.12713 11.2246 8.82335 11.2437C8.51957 11.2628 8.21925 11.1704 7.97875 10.9838L7.86125 10.88C7.64603 10.6648 7.51674 10.3784 7.49764 10.0746C7.47854 9.77086 7.57094 9.47055 7.7575 9.23004L7.86125 9.11129L14.1075 2.86629L7.8625 9.11129L7.86125 9.11254Z" fill="black" fill-opacity="0.8" />
</svg>
  