<svg width="22" height="22" viewBox="0 0 22 22" fill="none" xmlns="http://www.w3.org/2000/svg">
  <path fill-rule="evenodd" clip-rule="evenodd" d="M18 8.19995C20.2091 8.19995 22 6.40909 22 4.19995C22 1.99081 20.2091 0.199951 18 0.199951C15.7908 0.199951 14 1.99081 14 4.19995C14 4.20478 14 4.20961 14 4.21444L7.48861 8.72231C6.76639 7.68148 5.56276 6.99995 4.19995 6.99995C1.99081 6.99995 0.199951 8.79081 0.199951 11C0.199951 13.2091 1.99081 15 4.19995 15C5.79877 15 7.1785 14.0619 7.81883 12.7062L14.0198 16.9992C14.0067 17.131 14 17.2647 14 17.4C14 19.6091 15.7908 21.4 18 21.4C20.2091 21.4 22 19.6091 22 17.4C22 15.1908 20.2091 13.4 18 13.4C16.6598 13.4 15.4736 14.059 14.7478 15.0706L8.29011 10.6L14.5671 6.25433C15.2661 7.41988 16.5419 8.19995 18 8.19995ZM20 4.19995C20 5.30452 19.1045 6.19995 18 6.19995C16.8954 6.19995 16 5.30452 16 4.19995C16 3.09538 16.8954 2.19995 18 2.19995C19.1045 2.19995 20 3.09538 20 4.19995ZM20 17.4C20 18.5045 19.1045 19.4 18 19.4C16.8954 19.4 16 18.5045 16 17.4C16 16.2954 16.8954 15.4 18 15.4C19.1045 15.4 20 16.2954 20 17.4ZM4.19995 13C5.30452 13 6.19995 12.1045 6.19995 11C6.19995 9.89538 5.30452 8.99995 4.19995 8.99995C3.09538 8.99995 2.19995 9.89538 2.19995 11C2.19995 12.1045 3.09538 13 4.19995 13Z" fill="black" fill-opacity="0.8" />
</svg>
  