<svg width="18" height="18" viewBox="0 0 18 18" fill="none" xmlns="http://www.w3.org/2000/svg">
<path fill-rule="evenodd" clip-rule="evenodd" d="M0.999907 8C0.447622 8 -9.30577e-05 8.44772 -9.30261e-05 9C-9.30577e-05 9.55228 0.447622 10 0.999907 10L7.99991 10L7.99991 17C7.99991 17.5523 8.44762 18 8.99991 18C9.55219 18 9.99991 17.5523 9.99991 17L9.99991 10H16.9999C17.5522 10 17.9999 9.55228 17.9999 9C17.9999 8.44772 17.5522 8 16.9999 8H9.99991L9.99991 1C9.99991 0.447716 9.55219 1.30289e-08 8.99991 4.13424e-07C8.44762 1.07859e-07 7.99991 0.447716 7.99991 1L7.99991 8L0.999907 8Z" fill="black" fill-opacity="0.8"/>
</svg>
