<svg width="13" height="10" viewBox="0 0 13 10" fill="none" xmlns="http://www.w3.org/2000/svg">
<path d="M10.3271 0.297796C10.5384 0.104676 10.8195 -0.00208818 11.1113 3.09533e-05C11.403 0.00215009 11.6825 0.112987 11.8907 0.309155C12.099 0.505322 12.2197 0.771476 12.2274 1.05145C12.2351 1.33143 12.1292 1.60334 11.9321 1.8098L5.94706 8.9954C5.84415 9.10181 5.71994 9.18721 5.58186 9.24648C5.44378 9.30576 5.29467 9.3377 5.14344 9.34039C4.99221 9.34308 4.84197 9.31646 4.7017 9.26213C4.56143 9.2078 4.43401 9.12688 4.32706 9.0242L0.358063 5.21396C0.247532 5.11508 0.158879 4.99585 0.0973912 4.86337C0.0359033 4.73089 0.00284026 4.58788 0.00017508 4.44287C-0.0024901 4.29786 0.0252972 4.15381 0.0818787 4.01934C0.13846 3.88486 0.222677 3.7627 0.329505 3.66014C0.436333 3.55759 0.563584 3.47674 0.703666 3.42242C0.843748 3.3681 0.993792 3.34143 1.14485 3.34398C1.2959 3.34654 1.44487 3.37828 1.58287 3.43731C1.72087 3.49634 1.84507 3.58145 1.94806 3.68756L5.08906 6.70148L10.2986 0.329477C10.3079 0.31839 10.318 0.307813 10.3286 0.297796H10.3271Z" fill="black" fill-opacity="0.8"/>
</svg>
