<svg width="24" height="24" viewBox="0 0 24 24" fill="none" xmlns="http://www.w3.org/2000/svg">
<circle cx="12" cy="12.5" r="2.5" stroke="#7C7B7B" stroke-width="2"/>
<path d="M3 12.933C3 12.8964 3.01754 12.7594 3.1326 12.5068C3.24213 12.2664 3.41576 11.9741 3.65807 11.6445C4.14242 10.9857 4.85554 10.2399 5.73184 9.53811C7.50385 8.11909 9.78933 7 12.0046 7V5C9.16511 5 6.44828 6.40214 4.48169 7.97698C3.48868 8.77218 2.64842 9.6414 2.04671 10.4598C1.746 10.8688 1.49343 11.2806 1.31252 11.6778C1.13714 12.0628 1 12.497 1 12.933L3 12.933ZM12.0046 7C14.2236 7 16.5076 8.10525 18.2745 9.51378C19.1487 10.2107 19.8593 10.9533 20.3417 11.6133C20.8602 12.3227 21 12.7794 21 12.933H23C23 12.1071 22.5223 11.2074 21.9564 10.4332C21.3544 9.60955 20.514 8.74133 19.5212 7.94991C17.5541 6.38171 14.8404 5 12.0046 5V7ZM21 12.933C21 13.0618 20.8808 13.4571 20.3719 14.0762C19.8989 14.6516 19.1957 15.2895 18.3224 15.8847C16.5654 17.0821 14.2619 18.0118 12.0099 17.9999L11.9994 19.9999C14.7694 20.0145 17.4636 18.8902 19.4487 17.5374C20.4465 16.8574 21.3006 16.0961 21.917 15.3462C22.4975 14.6399 23 13.7838 23 12.933H21ZM12.0099 17.9999C9.75451 17.9881 7.44504 17.0409 5.6823 15.8393C4.80624 15.2421 4.10037 14.6054 3.62552 14.035C3.11086 13.4168 3 13.0367 3 12.933L1 12.933C1 13.7746 1.51196 14.6222 2.08847 15.3147C2.70478 16.055 3.55842 16.8119 4.55575 17.4918C6.5398 18.8443 9.23263 19.9854 11.9994 19.9999L12.0099 17.9999Z" fill="#7C7B7B"/>
</svg>
