<svg width="25" height="24" viewBox="0 0 25 24" fill="none" xmlns="http://www.w3.org/2000/svg">
<path fill-rule="evenodd" clip-rule="evenodd" d="M4.50003 11C3.94774 11 3.50003 11.4477 3.50003 12C3.50003 12.5523 3.94774 13 4.50003 13H11.5L11.5 20C11.5 20.5523 11.9477 21 12.5 21C13.0523 21 13.5 20.5523 13.5 20L13.5 13L20.5 13C21.0523 13 21.5 12.5523 21.5 12C21.5 11.4477 21.0523 11 20.5 11H13.5L13.5 4C13.5 3.44772 13.0523 3 12.5 3C11.9477 3 11.5 3.44772 11.5 4L11.5 11L4.50003 11Z" fill="black" fill-opacity="0.8"/>
</svg>
