<svg width="24" height="24" viewBox="0 0 24 24" fill="none" xmlns="http://www.w3.org/2000/svg">
<path fill-rule="evenodd" clip-rule="evenodd" d="M11.0191 2C9.9145 2 9.01907 2.89543 9.01907 4V4.95353L8.93074 4.99769L8.21882 4.28578C7.43778 3.50473 6.17145 3.50473 5.3904 4.28578L4.23305 5.44313C3.452 6.22418 3.452 7.49051 4.23305 8.27156L4.94496 8.98347L4.90079 9.0718L3.94727 9.0718C2.8427 9.0718 1.94727 9.96723 1.94727 11.0718V12.9291C1.94727 14.0337 2.8427 14.9291 3.94727 14.9291H4.9008L4.94496 15.0175L4.23305 15.7294C3.452 16.5104 3.452 17.7768 4.23305 18.5578L5.3904 19.7152C6.17145 20.4962 7.43778 20.4962 8.21882 19.7152L8.93074 19.0033L9.01907 19.0474L9.01907 20.0009C9.01907 21.1055 9.9145 22.0009 11.0191 22.0009H12.8764C13.981 22.0009 14.8764 21.1055 14.8764 20.0009V19.0474L14.9647 19.0033L15.6767 19.7152C16.4577 20.4962 17.724 20.4962 18.5051 19.7152L19.6624 18.5578C20.4435 17.7768 20.4435 16.5104 19.6624 15.7294L18.9505 15.0175L18.9947 14.9291H19.9482C21.0528 14.9291 21.9482 14.0337 21.9482 12.9291V11.0718C21.9482 9.96723 21.0528 9.0718 19.9482 9.0718H18.9947L18.9505 8.98347L19.6624 8.27156C20.4435 7.49051 20.4435 6.22418 19.6624 5.44313L18.5051 4.28578C17.724 3.50473 16.4577 3.50473 15.6767 4.28578L14.9647 4.99769L14.8764 4.95353V4C14.8764 2.89543 13.981 2 12.8764 2H11.0191ZM11.0191 4H12.8764V4.95353C12.8764 5.71107 13.3044 6.4036 13.982 6.74238L14.0703 6.78655C14.8403 7.17154 15.7702 7.02063 16.379 6.41191L17.0909 5.7L18.2482 6.85735L17.5363 7.56926C16.9276 8.17798 16.7767 9.10792 17.1617 9.8779L17.2058 9.96623C17.5446 10.6438 18.2371 11.0718 18.9947 11.0718H19.9482V12.9291H18.9947C18.2371 12.9291 17.5446 13.3571 17.2058 14.0347L17.1617 14.123C16.7767 14.893 16.9276 15.823 17.5363 16.4317L18.2482 17.1436L17.0909 18.301L16.379 17.589C15.7702 16.9803 14.8403 16.8294 14.0703 17.2144L13.982 17.2586C13.3044 17.5973 12.8764 18.2899 12.8764 19.0474V20.0009H11.0191V19.0474C11.0191 18.2899 10.5911 17.5973 9.91349 17.2586L9.82516 17.2144C9.05519 16.8294 8.12524 16.9803 7.51652 17.589L6.80461 18.301L5.64726 17.1436L6.35917 16.4317C6.96789 15.823 7.1188 14.893 6.73381 14.123L6.68965 14.0347C6.35087 13.3572 5.65834 12.9291 4.9008 12.9291H3.94727V11.0718H4.9008C5.65834 11.0718 6.35087 10.6438 6.68965 9.96623L6.73381 9.8779C7.1188 9.10792 6.96789 8.17798 6.35917 7.56926L5.64726 6.85735L6.80461 5.7L7.51652 6.41191C8.12524 7.02063 9.05519 7.17154 9.82516 6.78655L9.91349 6.74238C10.5911 6.4036 11.0191 5.71107 11.0191 4.95353V4ZM10.3762 12.0001C10.3762 11.1323 11.0796 10.4289 11.9474 10.4289C12.8151 10.4289 13.5185 11.1323 13.5185 12.0001C13.5185 12.8678 12.8151 13.5712 11.9474 13.5712C11.0796 13.5712 10.3762 12.8678 10.3762 12.0001ZM11.9474 8.42887C9.97505 8.42887 8.37617 10.0277 8.37617 12.0001C8.37617 13.9724 9.97505 15.5712 11.9474 15.5712C13.9197 15.5712 15.5185 13.9724 15.5185 12.0001C15.5185 10.0277 13.9197 8.42887 11.9474 8.42887Z" fill="#7C7B7B"/>
</svg>
